# xmcd CD database file
#
# Track frame offsets:
#	150
#	15030
#	37360
#	54765
#	73805
#	96502
#	123087
#	143142
#	163357
#	186662
#
# Disc length: 2678 seconds
#
# Revision: 0
# Processed by: cddbd v1.5.1PL2 Copyright (c) Steve Scherf et al.
# Submitted via: CDex 1.51
#
DISCID=8f0a740a
DTITLE=The Mighty reapers - You gotta reap
DYEAR=1996
DGENRE=Blues
TTITLE0=Ting-a-ling
TTITLE1=Drowning in the sea of love
TTITLE2=You gotta reap
TTITLE3=Watch yourself
TTITLE4=As the years go passing by
TTITLE5=Medley
TTITLE6=Little by little
TTITLE7=Checkin' up on my baby
TTITLE8=One more mile to go
TTITLE9=I'm tore down
EXTD=YEAR: 1996
EXTT0=
EXTT1=
EXTT2=
EXTT3=
EXTT4=
EXTT5=
EXTT6=
EXTT7=
EXTT8=
EXTT9=
PLAYORDER=
